<svg xmlns="http://www.w3.org/2000/svg" width="200" height="200" viewBox="0 0 200 200"><path fill="currentColor" d="M136.6 111.4c-9.5-5.3-15.5-9.2-15.5-14.8 0-4.3 2.8-8.4 8.7-8.4 7.6 0 12.3 5.4 12.3 14.5h20.5c0-17.9-11.8-29.3-32.8-29.3-18.2 0-31.5 10.5-31.5 26.5 0 12.9 7.3 20.3 19.3 26.9 10.3 5.7 16.9 9.6 16.9 15.3 0 5.3-4.5 9.2-11.3 9.2-9.2 0-14.2-5.4-14.8-15.8h-20.5c.9 19.4 14.5 31.2 35.2 31.2 21.1 0 34-11.2 34-27.8.3-12.8-7-20.9-19.5-27.4zM68 83.3h-22l-4.5 13.3h-22L45 40h24l25.5 56.6h-22zm-2.8-16.1L57.5 49c-1.2-3.4-2.4-6.8-3.4-9.8h-.3c-1.2 3.1-2.4 6.4-3.7 9.8l-7.7 18.2z"/></svg>