<svg xmlns="http://www.w3.org/2000/svg" width="200" height="200" viewBox="0 0 200 200"><g fill="currentColor"><path d="M72.2 135.5c-4.4 1.3-9 .6-13-1.9c-1-3.6-2.1-7.2-2.1-11.2c0-7.7 2.3-14.5 6.4-18.7c-3.1-1.4-6.4-2.8-9.4-4.8c-2.4-1.5-5.2-3-7-5.5c-.3-1.6-1.4-5.3-1.4-5.3c-.6-1.7-1.1-2.2-2-2.2c-.7 0-1.4.3-1.8.8c-.8.8-1.5 2.4-1.5 2.4s-.3.5-.5.7c-.3.4-.6.6-1 .6c-2.6 0-3.6-4.1-3.6-4.1c-1.3-3.6-2-7.2-2.3-11c-.3-5.2.8-10.2 3.1-14.1c5-8.6 14.5-12.7 23.3-12.7c1.3 0 2.5.1 3.8.3c8.1 1.2 15.1 6.8 17 14.7c-2 .5-4.4 1.1-6.8 1.9c-1.4-4.2-4.1-7.4-7.8-8.8c-4.2-1.6-9.6-1.1-14.1 2.2c-4.1 3-6.9 8.2-6.9 14.2c0 2.7.5 5.2 1.5 7.4c1.1 2.5 3.3 4.3 5.4 5.7c1.4.9 3.1 1.9 4.6 2.7c4.2 2.2 9.5 4.3 9.5 11c0 4-1.4 8.7-4.1 12.1c-2.7 3.5-6.8 5.6-11.1 5.9m-1.7-61c-1.1 0-2.3.1-3.4.4c-6 .9-10.7 5.2-11.6 10.9c-.3 2.1-.2 4.1.3 6c2.4-1.4 4.5-3.3 6.1-5.6c4-5.7 6.4-13.8 6.4-13.8c.1-.4.2-.7.2-.9c.2-1.5-1-2.9-2.5-3.1c-1.7-.2-3.3.8-3.5 2.5v.4Z"/><path d="M127.3 125.5c-2.8 3.5-7.3 5.6-11.9 5.6c-4.4 0-8.5-1.9-11.4-5.4c-3.1-3.8-4.4-9.1-4.1-14.6c.4-5.7 2.3-10.8 5.4-14.2c2.9-3.2 7-5.1 11.2-5.1c4.5 0 8.8 1.9 11.8 5.4c2.8 3.3 4.4 8.1 4.1 13.1c-.3 5.5-2.2 10.6-5.2 14.8M115.1 94c-3.1 0-5.8 1.4-7.5 3.8c-2 2.7-3 6.4-2.8 10.4c.2 4.4 2 8.4 4.7 11.1c2.4 2.5 6.1 3.9 9.6 3.9c3.3 0 6.6-1.4 8.8-3.9c2.5-2.8 3.8-6.9 3.5-11.4c-.3-4.1-2-7.8-4.6-10.4c-2.2-2.3-5.5-3.5-8.7-3.5Z"/><path d="M174.9 125.7c-2.8 3.5-7.3 5.6-11.9 5.6c-4.4 0-8.5-1.9-11.4-5.4c-3.1-3.8-4.4-9.1-4.1-14.6c.4-5.7 2.3-10.8 5.4-14.2c2.9-3.2 7-5.1 11.2-5.1c4.5 0 8.8 1.9 11.8 5.4c2.8 3.3 4.4 8.1 4.1 13.1c-.3 5.5-2.2 10.6-5.2 14.8m-11.8-31.7c-3.1 0-5.8 1.4-7.5 3.8c-2 2.7-3 6.4-2.8 10.4c.2 4.4 2 8.4 4.7 11.1c2.4 2.5 6.1 3.9 9.6 3.9c3.3 0 6.6-1.4 8.8-3.9c2.5-2.8 3.8-6.9 3.5-11.4c-.3-4.1-2-7.8-4.6-10.4c-2.2-2.3-5.5-3.5-8.7-3.5Z"/></g></svg>